/* XPM */
static char * library_xpm[] = {
"32 32 381 2",
"  	c None",
". 	c #6A5222",
"+ 	c #6D5523",
"@ 	c #715926",
"# 	c #745C26",
"$ 	c #765E27",
"% 	c #786027",
"& 	c #7A6128",
"* 	c #7C6329",
"= 	c #7D6429",
"- 	c #7E6529",
"; 	c #7E6429",
"> 	c #7D6329",
", 	c #7B6228",
"' 	c #796027",
") 	c #775F27",
"! 	c #725B26",
"~ 	c #6F5824",
"{ 	c #6B5423",
"] 	c #635021",
"^ 	c #645121",
"/ 	c #6A5824",
"( 	c #705D26",
"_ 	c #786429",
": 	c #7D692B",
"< 	c #85702E",
"[ 	c #8A7530",
"} 	c #917A32",
"| 	c #967F34",
"1 	c #9B8336",
"2 	c #9D8436",
"3 	c #9D8537",
"4 	c #9D8536",
"5 	c #9C8336",
"6 	c #988035",
"7 	c #937C33",
"8 	c #8D7631",
"9 	c #86712E",
"0 	c #7F6B2B",
"a 	c #79652A",
"b 	c #736027",
"c 	c #6D5A25",
"d 	c #685523",
"e 	c #584A1E",
"f 	c #5B4E1F",
"g 	c #615320",
"h 	c #685822",
"i 	c #6E5D23",
"j 	c #746326",
"k 	c #7B6928",
"l 	c #816E2A",
"m 	c #86732D",
"n 	c #8C782E",
"o 	c #907C30",
"p 	c #927D31",
"q 	c #917D30",
"r 	c #8E792F",
"s 	c #89752D",
"t 	c #83702B",
"u 	c #7C6A29",
"v 	c #766427",
"w 	c #705E24",
"x 	c #6A5A22",
"y 	c #635421",
"z 	c #5F5020",
"A 	c #594B1E",
"B 	c #594B1F",
"C 	c #4C4419",
"D 	c #4F4519",
"E 	c #53491A",
"F 	c #554919",
"G 	c #564B18",
"H 	c #584D18",
"I 	c #5B4E19",
"J 	c #5D501A",
"K 	c #5F511A",
"L 	c #60531B",
"M 	c #61531B",
"N 	c #61551C",
"O 	c #62541C",
"P 	c #5F521B",
"Q 	c #5E501A",
"R 	c #5B4F1A",
"S 	c #594C19",
"T 	c #574A19",
"U 	c #564A19",
"V 	c #534819",
"W 	c #50461A",
"X 	c #4B4319",
"Y 	c #4E461B",
"Z 	c #5F5522",
"` 	c #7F6F29",
" .	c #7F6F28",
"..	c #7D6D27",
"+.	c #7C6B25",
"@.	c #7B6A25",
"#.	c #7A6924",
"$.	c #7A6A25",
"%.	c #7E6D27",
"&.	c #807029",
"*.	c #81712A",
"=.	c #625722",
"-.	c #675B23",
";.	c #BBAC38",
">.	c #CAB438",
",.	c #C5AD36",
"'.	c #C3A934",
").	c #C2A934",
"!.	c #C3A935",
"~.	c #625621",
"{.	c #C8B336",
"].	c #231E09",
"^.	c #231E0A",
"/.	c #615621",
"(.	c #C3AB35",
"_.	c #2C250C",
":.	c #5A5A5A",
"<.	c #656565",
"[.	c #343434",
"}.	c #264708",
"|.	c #2B5009",
"1.	c #162905",
"2.	c #1D4963",
"3.	c #21526F",
"4.	c #112A39",
"5.	c #192732",
"6.	c #31280E",
"7.	c #352C12",
"8.	c #655D38",
"9.	c #6B633B",
"0.	c #3D3720",
"a.	c #191407",
"b.	c #30280D",
"c.	c #605521",
"d.	c #BDA534",
"e.	c #3A3110",
"f.	c #959595",
"g.	c #B4B4B4",
"h.	c #686868",
"i.	c #40790D",
"j.	c #4E920F",
"k.	c #254607",
"l.	c #2F77A2",
"m.	c #3990C4",
"n.	c #1B457B",
"o.	c #463913",
"p.	c #574C22",
"q.	c #B0A35B",
"r.	c #BCAE61",
"s.	c #332F1A",
"t.	c #0B0903",
"u.	c #0F0C04",
"v.	c #0E0C04",
"w.	c #0C0A03",
"x.	c #605520",
"y.	c #BBA333",
"z.	c #443912",
"A.	c #AAAAAA",
"B.	c #D2D2D2",
"C.	c #868686",
"D.	c #4E900D",
"E.	c #60B210",
"F.	c #2D6107",
"G.	c #3384B6",
"H.	c #3FA3E0",
"I.	c #1D5097",
"J.	c #534416",
"K.	c #7C7133",
"L.	c #DACC64",
"M.	c #D8CA63",
"N.	c #3D1C16",
"O.	c #411616",
"P.	c #3A1414",
"Q.	c #5F5420",
"R.	c #B8A233",
"S.	c #473D14",
"T.	c #A0A0A0",
"U.	c #C5C5C5",
"V.	c #787878",
"W.	c #4D8E0B",
"X.	c #5FAF0E",
"Y.	c #2C5E06",
"Z.	c #2D77A6",
"`.	c #3792CD",
" +	c #1A4580",
".+	c #584819",
"++	c #9F963D",
"@+	c #DFD256",
"#+	c #C7BB4D",
"$+	c #962F2F",
"%+	c #B53939",
"&+	c #5E5320",
"*+	c #B69F32",
"=+	c #5B4E1A",
"-+	c #949494",
";+	c #B6B6B6",
">+	c #676767",
",+	c #4C8C08",
"'+	c #5EAC0A",
")+	c #2C5B05",
"!+	c #266895",
"~+	c #2F80B8",
"{+	c #163C68",
"]+	c #705C1F",
"^+	c #6F5C1F",
"/+	c #B3AB36",
"(+	c #E0D544",
"_+	c #958D2D",
":+	c #912525",
"<+	c #C33636",
"[+	c #5D5320",
"}+	c #B39D32",
"|+	c #594C1A",
"1+	c #888888",
"2+	c #A7A7A7",
"3+	c #565656",
"4+	c #4C8A06",
"5+	c #5EAA07",
"6+	c #2C5803",
"7+	c #1F5984",
"8+	c #266EA3",
"9+	c #123350",
"0+	c #6E5A1F",
"a+	c #6E601C",
"b+	c #BAB329",
"c+	c #D6CE2F",
"d+	c #635E17",
"e+	c #132F40",
"f+	c #5D5220",
"g+	c #B19B31",
"h+	c #584B19",
"i+	c #7C7C7C",
"j+	c #AEAEAE",
"k+	c #474747",
"l+	c #4B8803",
"m+	c #5DA704",
"n+	c #2B5602",
"o+	c #194B75",
"p+	c #2570A7",
"q+	c #0E2B43",
"r+	c #6C591F",
"s+	c #776E16",
"t+	c #CCC81F",
"u+	c #D2CE1F",
"v+	c #3A360B",
"w+	c #27668E",
"x+	c #2F7BAC",
"y+	c #5C5220",
"z+	c #AE9830",
"A+	c #574918",
"B+	c #737373",
"C+	c #A5A5A5",
"D+	c #424242",
"E+	c #4B8602",
"F+	c #6FB802",
"G+	c #2B5301",
"H+	c #134067",
"I+	c #1D5F99",
"J+	c #0B253B",
"K+	c #69571E",
"L+	c #8B860A",
"M+	c #D1CE0D",
"N+	c #B8B40A",
"O+	c #1F1B06",
"P+	c #1D547F",
"Q+	c #2B7EB1",
"R+	c #5B5120",
"S+	c #AB9530",
"T+	c #C4B63E",
"U+	c #BFAF3D",
"V+	c #BDA93C",
"W+	c #5A5020",
"X+	c #A99230",
"Y+	c #1C1808",
"Z+	c #1C1708",
"`+	c #595020",
" @	c #A68E2F",
".@	c #1E353C",
"+@	c #1F4E6A",
"@@	c #1D4A64",
"#@	c #0E1C25",
"$@	c #0D181F",
"%@	c #241F0E",
"&@	c #27200C",
"*@	c #20190A",
"=@	c #070602",
"-@	c #1B1709",
";@	c #241F0B",
">@	c #584F20",
",@	c #A38D2D",
"'@	c #2C3D38",
")@	c #3485B5",
"!@	c #317CA9",
"~@	c #16313F",
"{@	c #101C21",
"]@	c #282717",
"^@	c #372F11",
"/@	c #0A0803",
"(@	c #30290E",
"_@	c #584E20",
":@	c #A0892D",
"<@	c #35351F",
"[@	c #3890C6",
"}@	c #3891C7",
"|@	c #1F4B65",
"1@	c #131F24",
"2@	c #22261E",
"3@	c #423715",
"4@	c #643535",
"5@	c #703B3B",
"6@	c #382F10",
"7@	c #574E20",
"8@	c #9D872C",
"9@	c #3A3211",
"0@	c #2E7AAB",
"a@	c #3489C0",
"b@	c #256187",
"c@	c #142227",
"d@	c #172326",
"e@	c #453B16",
"f@	c #A2525D",
"g@	c #CE7482",
"h@	c #40760A",
"i@	c #5AA10E",
"j@	c #564D20",
"k@	c #9B832C",
"l@	c #4B3F16",
"m@	c #2F5F78",
"n@	c #2E7CB2",
"o@	c #24638F",
"p@	c #182A31",
"q@	c #19272C",
"r@	c #52471E",
"s@	c #B45673",
"t@	c #DE6A8E",
"u@	c #4B8905",
"v@	c #5DA906",
"w@	c #554D20",
"x@	c #97802B",
"y@	c #493E16",
"z@	c #354B4C",
"A@	c #2A7AAC",
"B@	c #205B88",
"C@	c #172F3E",
"D@	c #192930",
"E@	c #3F3C21",
"F@	c #98822C",
"G@	c #493F16",
"H@	c #40442E",
"I@	c #1C5584",
"J@	c #1F6094",
"K@	c #153449",
"L@	c #1A2D35",
"M@	c #303629",
"N@	c #378FBA",
"O@	c #878787",
"P@	c #B3B3B3",
"Q@	c #544C20",
"R@	c #9C842D",
"S@	c #4D4117",
"T@	c #51471F",
"U@	c #15456F",
"V@	c #1A568B",
"W@	c #113553",
"X@	c #1B3039",
"Y@	c #213031",
"Z@	c #24689C",
"`@	c #848484",
" #	c #A2A2A2",
".#	c #4F481E",
"+#	c #887628",
"@#	c #C1B33D",
"##	c #BCAE3C",
"$#	c #BAA93A",
"%#	c #BAA83A",
"&#	c #3F3918",
"*#	c #E1E0E0",
"=#	c #BCBBBB",
"-#	c #000000",
";#	c #4D4D4D",
">#	c #4C4C4C",
"                                                                ",
"                                                                ",
"        . . + @ # $ % & * = - - - ; > , ' ) # ! ~ { . .         ",
"      ] ^ / ( _ : < [ } | 1 2 3 4 5 6 7 8 9 0 a b c d ] ]       ",
"      e f g h i j k l m n o p p p q r s t u v w x y z A B       ",
"      C D E F G H I J K L M N N N O L P Q R S T U V W X Y       ",
"    Z `  ...+.@.#.$.@.@.@.@.@.@.@.@.@.@.@.@.#.@.+.%.&.*.*.=.    ",
"    -.;.>.,.'.).).).).).).).).).).).).).).).).).).!.,.>.;.-.    ",
"    ~.{.].^.].].].].].].].].].].].].].].].].].].].].^.].{.~.    ",
"    /.(._.:.<.[.}.|.1.2.3.4.5.6.6.7.8.9.0.a.6.6.6.6.b._.(./.    ",
"    c.d.e.f.g.h.i.j.k.l.m.n.5.o.o.p.q.r.s.t.u.u.u.u.v.w.d.c.    ",
"    x.y.z.A.B.C.D.E.F.G.H.I.5.J.J.K.L.M.N.O.O.O.O.O.O.P.y.x.    ",
"    Q.R.S.T.U.V.W.X.Y.Z.`. +5..+.+++@+#+$+%+%+%+%+%+%+$+R.Q.    ",
"    &+*+=+-+;+>+,+'+)+!+~+{+5.]+^+/+(+_+:+<+<+<+<+<+<+:+*+&+    ",
"    [+}+|+1+2+3+4+5+6+7+8+9+5.0+a+b+c+d+4.e+e+e+e+e+e+4.}+[+    ",
"    f+g+h+i+j+k+l+m+n+o+p+q+5.r+s+t+u+v+w+x+x+x+x+x+x+w+g+f+    ",
"    y+z+A+B+C+D+E+F+G+H+I+J+5.K+L+M+N+O+P+Q+Q+Q+Q+Q+Q+P+z+y+    ",
"    R+S+T+U+V+V+V+V+V+V+V+V+V+V+V+V+V+V+V+V+V+V+V+V+U+T+S+R+    ",
"    W+X+Y+Z+Z+Z+Z+Z+Z+Z+Z+Z+Z+Z+Z+Z+Z+Z+Z+Z+Z+Z+Z+Z+Z+Y+X+W+    ",
"    `+ @.@+@@@#@$@%@&@*@=@=@=@=@=@=@=@=@=@=@=@=@=@=@-@;@ @`+    ",
"    >@,@'@)@!@~@{@]@^@/@/@/@/@/@/@/@/@/@/@/@/@/@/@/@/@(@,@>@    ",
"    _@:@<@[@}@|@1@2@3@4@5@5@5@5@5@5@4@}.|.|.|.|.|.|.}.6@:@_@    ",
"    7@8@9@0@a@b@c@d@e@f@g@g@g@g@g@g@f@h@i@i@i@i@i@i@h@9@8@7@    ",
"    j@k@l@m@n@o@p@q@r@s@t@t@t@t@t@t@s@u@v@v@v@v@v@v@u@l@k@j@    ",
"    w@x@y@z@A@B@C@D@E@2.3.3.3.3.3.3.2.:.<.<.<.<.<.<.:.y@x@w@    ",
"    w@F@G@H@I@J@K@L@M@w+N@N@N@N@N@N@w+O@P@P@P@P@P@P@O@G@F@w@    ",
"    Q@R@S@T@U@V@W@X@Y@P+Z@Z@Z@Z@Z@Z@P+`@ # # # # # #`@S@R@Q@    ",
"    .#+#@###$#%#%#%#%#%#%#%#%#%#%#%#%#%#%#%#%#%#%#$###@#+#.#    ",
"      &#&#&#&#&#&#&#&#&#&#&#&#&#&#&#&#&#&#&#&#&#&#&#&#&#&#      ",
"          h.*#=#h.-#-#-#-#-#-#-#-#-#-#-#-#-#-#h.*#=#h.          ",
"          ;#h.h.>#                            >#h.h.;#          ",
"                                                                "};
